<?xml version="1.0" standalone="no"?>
<!DOCTYPE svg PUBLIC "-//W3C//DTD SVG 20010904//EN"
 "http://www.w3.org/TR/2001/REC-SVG-20010904/DTD/svg10.dtd">
<svg version="1.0" xmlns="http://www.w3.org/2000/svg"
 width="225.000000pt" height="225.000000pt" viewBox="0 0 225.000000 225.000000"
 preserveAspectRatio="xMidYMid meet">
<metadata>
Created by potrace 1.14, written by Peter Selinger 2001-2017
</metadata>
<g transform="translate(0.000000,225.000000) scale(0.100000,-0.100000)"
fill="#000000" stroke="none">
<path d="M656 1715 c-49 -17 -93 -59 -117 -110 -17 -37 -19 -73 -19 -480 0
-407 2 -443 19 -480 10 -22 31 -52 47 -67 62 -58 64 -58 541 -58 406 0 441 2
478 19 48 22 79 50 102 94 16 29 18 74 21 467 2 306 0 447 -9 476 -15 55 -59
107 -112 133 -42 20 -57 21 -478 21 -342 -1 -442 -4 -473 -15z m898 -128 c54
-36 56 -52 56 -467 0 -318 -2 -386 -15 -410 -31 -59 -34 -60 -332 -60 -254 0
-273 1 -282 18 -6 11 -10 152 -11 346 l0 326 27 12 c16 7 90 13 173 14 80 1
139 0 132 -3 -10 -4 -7 -9 8 -20 12 -8 24 -12 28 -8 3 3 0 10 -8 15 -8 6 -10
10 -5 11 6 1 15 3 20 4 6 2 18 3 27 4 28 2 51 31 37 47 -14 17 -27 10 -39 -20
-8 -19 -9 -19 -9 7 -1 15 4 27 9 27 6 0 10 4 10 10 0 24 -198 79 -245 67 -12
-3 -3 -6 20 -7 22 -1 51 -6 65 -11 16 -5 -2 -6 -50 -3 -122 9 -151 7 -225 -11
-114 -28 -105 10 -105 -436 l0 -387 -46 -4 c-60 -4 -102 10 -128 45 -20 28
-21 38 -21 431 0 372 1 404 18 430 36 55 47 56 472 53 359 -2 393 -3 419 -20z
m-331 -122 c38 -3 56 -2 52 5 -4 6 1 7 10 3 36 -13 -11 -22 -87 -16 -75 6 -78
5 -78 -16 0 -18 6 -21 40 -21 29 0 40 -4 40 -15 0 -11 -11 -15 -40 -15 -22 0
-40 5 -40 11 0 6 -7 18 -16 27 -15 14 -15 17 1 28 15 11 15 13 -2 17 -17 5 -4
4 120 -8z"/>
<path d="M1423 1383 c-7 -3 -13 -15 -13 -28 0 -29 -24 -49 -50 -42 -18 5 -20
1 -18 -51 l1 -57 7 45 c6 40 7 41 8 12 2 -36 -24 -128 -42 -151 -8 -11 -8 -15
2 -18 6 -3 12 -9 12 -15 0 -6 -6 -6 -15 2 -11 9 -22 9 -51 0 -26 -9 -69 -11
-135 -6 -111 7 -115 4 -125 -67 l-7 -46 44 -12 c94 -27 279 -9 279 28 0 22
-12 43 -26 43 -19 0 -18 26 2 34 24 9 26 8 19 -14 -5 -16 -2 -20 18 -20 14 0
27 5 29 12 3 9 6 9 12 0 4 -7 2 -12 -3 -12 -6 0 -11 -7 -11 -16 0 -12 6 -11
29 8 35 27 39 43 9 35 -12 -3 -29 -2 -39 3 -15 8 -16 15 -6 45 9 32 14 35 49
35 32 0 38 -3 38 -21 0 -12 4 -17 11 -14 6 4 8 14 5 21 -3 8 -8 53 -12 101 -4
63 -3 83 6 78 6 -4 10 -27 9 -53 -1 -26 -1 -63 1 -82 2 -32 3 -31 9 14 12 87
-17 219 -46 209z"/>
</g>
</svg>
