<?xml version="1.0" standalone="no"?>
<!DOCTYPE svg PUBLIC "-//W3C//DTD SVG 20010904//EN"
 "http://www.w3.org/TR/2001/REC-SVG-20010904/DTD/svg10.dtd">
<svg version="1.0" xmlns="http://www.w3.org/2000/svg"
 width="225.000000pt" height="225.000000pt" viewBox="0 0 225.000000 225.000000"
 preserveAspectRatio="xMidYMid meet">
<metadata>
Created by potrace 1.14, written by Peter Selinger 2001-2017
</metadata>
<g transform="translate(0.000000,225.000000) scale(0.100000,-0.100000)"
fill="#000000" stroke="none">
<path d="M720 1715 c0 -8 -8 -15 -18 -15 -11 0 -32 -11 -47 -24 -16 -14 -33
-22 -39 -19 -5 4 -1 10 10 14 10 4 15 8 10 8 -6 1 -1 8 10 16 10 8 15 14 9 15
-18 0 -73 -38 -84 -58 -9 -16 -7 -21 9 -25 11 -3 22 -1 25 3 3 5 -3 11 -12 13
-16 4 -16 5 -1 6 22 1 34 -19 18 -29 -7 -5 -24 -6 -37 -4 -20 4 -26 -2 -39
-31 -13 -31 -14 -103 -12 -479 l3 -442 28 -42 c15 -23 46 -54 69 -69 l42 -28
460 0 461 0 45 30 c25 17 56 50 69 74 27 49 40 157 23 187 -10 17 -11 15 -12
-13 0 -37 -19 -46 -21 -10 -1 21 -1 21 -9 -3 l-8 -25 -2 25 c-1 23 -2 23 -10
5 -5 -11 -9 -15 -9 -10 -1 6 -5 3 -11 -5 -8 -13 -10 -13 -14 0 -3 8 -7 38 -9
65 -2 33 -4 22 -5 -33 -2 -98 -19 -138 -67 -158 -52 -21 -537 -21 -555 1 -16
19 -34 19 -26 0 3 -8 3 -15 1 -15 -7 0 -34 55 -39 81 -15 76 -20 89 -32 89 -9
0 -14 13 -15 38 0 29 -2 33 -8 17 -7 -16 -10 -9 -15 30 -4 28 -9 57 -10 65 -2
8 -4 -61 -5 -154 l-1 -168 -65 4 c-58 3 -69 8 -98 36 l-32 32 -3 403 c-3 362
-1 405 14 434 19 37 67 63 115 63 31 0 32 1 13 14 -18 14 -18 15 -1 21 25 10
21 22 -10 33 -22 8 -24 11 -8 12 19 1 19 1 2 15 -18 13 -16 14 15 18 26 3 24
4 -14 5 -37 2 -48 -2 -48 -13z m997 -1007 c-3 -8 -6 -5 -6 6 -1 11 2 17 5 13
3 -3 4 -12 1 -19z m-17 -12 c0 -7 -9 -16 -20 -19 -25 -6 -26 1 -2 19 22 17 22
17 22 0z m-710 -122 c0 -3 -6 -12 -14 -20 -13 -12 -15 -12 -13 6 1 17 27 31
27 14z"/>
<path d="M1280 1720 c0 -5 6 -10 13 -10 8 0 8 -3 1 -8 -5 -4 -11 -16 -11 -27
-1 -11 -4 -30 -8 -42 -7 -23 -7 -23 115 -23 135 0 173 -11 203 -58 l18 -27 -5
75 c-5 91 -12 109 -43 121 -33 12 -283 12 -283 -1z"/>
<path d="M963 765 c0 -27 2 -38 4 -22 2 15 2 37 0 50 -2 12 -4 0 -4 -28z"/>
<path d="M961 694 c0 -11 3 -14 6 -6 3 7 2 16 -1 19 -3 4 -6 -2 -5 -13z"/>
</g>
</svg>
